<?xml version="1.0" encoding="utf-8"?>
<!-- Generator: Adobe Illustrator 22.1.0, SVG Export Plug-In . SVG Version: 6.00 Build 0)  -->
<svg version="1.1" id="Layer_1" xmlns="http://www.w3.org/2000/svg" xmlns:xlink="http://www.w3.org/1999/xlink" x="0px" y="0px"
	 viewBox="0 0 50 50" style="enable-background:new 0 0 50 50;" xml:space="preserve">
<style type="text/css">
	.st0{fill:#1C1C1C;}
</style>
<g>
	<title>rc-colored</title>
	<g id="Layer_2_1_">
		<g id="Layer_1-2">
			<path class="st0" d="M17.5,10.6h3.5c0.5-1.5,1.2-2.8,2.1-4.1c0.4-0.5,0.8-1,1.2-1.4H18c-1.8,0-3.7,0.1-5.4,0.5
				c-1.4,0.3-2.8,0.9-4.1,1.7C7.3,8,6.4,9.2,5.9,10.5c-0.6,1.6-0.9,3.4-0.9,5.1c-0.1,2.1,0.3,4.3,1.1,6.2c0.7,1.6,2.1,2.9,3.7,3.6
				L4.3,44.9h8.3L17.2,27H20V22h-2c-1.9,0-3.3-0.5-4.1-1.4c-0.8-1-1.2-2.4-1.2-4.4s0.4-3.4,1.1-4.3C14.3,11,15.6,10.6,17.5,10.6z"/>
			<path class="st0" d="M37.8,19.5v-4.7c0-0.2,0-0.5,0-0.9c0-0.3,0-0.6-0.1-0.9l-0.2-0.7c0-0.3-0.1-0.5-0.3-0.7
				c-0.1-0.1-0.2-0.3-0.4-0.5c-0.1-0.2-0.3-0.3-0.6-0.4c-0.2-0.1-0.5-0.2-0.8-0.2c-0.3-0.1-0.6-0.1-1-0.1c-0.5,0-1.1,0.1-1.6,0.3
				c-0.4,0.2-0.7,0.5-1,0.8c-0.3,0.4-0.5,0.8-0.6,1.3c-0.1,0.5-0.2,1-0.2,1.5c0,0.5-0.1,1.1-0.1,1.8V34c-0.1,1.5,0.1,2.9,0.7,4.3
				c0.6,1,1.6,1.5,2.7,1.4c0.5,0,0.9-0.1,1.3-0.2c0.4-0.1,0.7-0.3,0.9-0.6c0.2-0.3,0.4-0.6,0.6-0.9c0.2-0.4,0.3-0.8,0.3-1.2
				c0.1-0.5,0.1-0.9,0.1-1.3s0-0.8,0-1.5V30h7.9v3.4c0,1.6-0.1,3.3-0.5,4.8c-0.3,1.3-0.9,2.6-1.8,3.7c-0.9,1.2-2.1,2-3.5,2.5
				c-1.7,0.6-3.6,0.9-5.4,0.9c-1.9,0-3.8-0.3-5.6-0.9c-1.4-0.6-2.7-1.5-3.6-2.8c-0.9-1.3-1.5-2.7-1.9-4.2c-0.4-1.8-0.6-3.6-0.6-5.5
				V18c0-1.9,0.2-3.8,0.6-5.6c0.1-0.6,0.3-1.2,0.6-1.8c0.3-0.8,0.8-1.6,1.3-2.4C26.2,7,27.5,6,28.9,5.5l0.5-0.2
				c1.6-0.5,3.3-0.8,5.1-0.7c1.8,0,3.6,0.2,5.3,0.8c1.3,0.5,2.5,1.3,3.5,2.4c0.8,1.1,1.5,2.3,1.8,3.6c0.4,1.5,0.6,3.1,0.6,4.7v3.5
				L37.8,19.5z"/>
		</g>
	</g>
</g>
</svg>
