<svg xmlns="http://www.w3.org/2000/svg" viewBox="0 0 42.62 426.62"><title>backslashes</title><g id="Layer_2" data-name="Layer 2"><g id="Layer_1-2" data-name="Layer 1"><rect x="19.81" y="-7.33" width="3" height="57.28" transform="translate(-8.83 21.31) rotate(-45)"/><rect x="19.81" y="40.67" width="3" height="57.28" transform="translate(-42.77 35.37) rotate(-45)"/><rect x="19.81" y="88.67" width="3" height="57.28" transform="translate(-76.71 49.43) rotate(-45)"/><rect x="19.81" y="136.67" width="3" height="57.28" transform="translate(-110.65 63.49) rotate(-45)"/><rect x="19.81" y="184.67" width="3" height="57.28" transform="translate(-144.59 77.55) rotate(-45)"/><rect x="19.81" y="232.67" width="3" height="57.28" transform="translate(-178.53 91.6) rotate(-45)"/><rect x="19.81" y="280.67" width="3" height="57.28" transform="translate(-212.47 105.66) rotate(-45)"/><rect x="19.81" y="328.67" width="3" height="57.28" transform="translate(-246.41 119.72) rotate(-45)"/><rect x="19.81" y="376.67" width="3" height="57.28" transform="translate(-280.36 133.78) rotate(-45)"/></g></g></svg>