<svg xmlns="http://www.w3.org/2000/svg" viewBox="0 0 291 579"><title>dots</title><g id="Layer_2" data-name="Layer 2"><g id="Layer_1-2" data-name="Layer 1"><circle cx="16.5" cy="16.5" r="16.5"/><circle cx="102.5" cy="16.5" r="16.5"/><circle cx="188.5" cy="16.5" r="16.5"/><circle cx="274.5" cy="16.5" r="16.5"/><circle cx="16.5" cy="94.5" r="16.5"/><circle cx="102.5" cy="94.5" r="16.5"/><circle cx="188.5" cy="94.5" r="16.5"/><circle cx="274.5" cy="94.5" r="16.5"/><circle cx="16.5" cy="172.5" r="16.5"/><circle cx="102.5" cy="172.5" r="16.5"/><circle cx="188.5" cy="172.5" r="16.5"/><circle cx="274.5" cy="172.5" r="16.5"/><circle cx="16.5" cy="250.5" r="16.5"/><circle cx="102.5" cy="250.5" r="16.5"/><circle cx="188.5" cy="250.5" r="16.5"/><circle cx="274.5" cy="250.5" r="16.5"/><circle cx="16.5" cy="328.5" r="16.5"/><circle cx="102.5" cy="328.5" r="16.5"/><circle cx="188.5" cy="328.5" r="16.5"/><circle cx="274.5" cy="328.5" r="16.5"/><circle cx="16.5" cy="406.5" r="16.5"/><circle cx="102.5" cy="406.5" r="16.5"/><circle cx="188.5" cy="406.5" r="16.5"/><circle cx="274.5" cy="406.5" r="16.5"/><circle cx="16.5" cy="484.5" r="16.5"/><circle cx="102.5" cy="484.5" r="16.5"/><circle cx="188.5" cy="484.5" r="16.5"/><circle cx="274.5" cy="484.5" r="16.5"/><circle cx="16.5" cy="562.5" r="16.5"/><circle cx="102.5" cy="562.5" r="16.5"/><circle cx="188.5" cy="562.5" r="16.5"/><circle cx="274.5" cy="562.5" r="16.5"/></g></g></svg>