<svg xmlns="http://www.w3.org/2000/svg" viewBox="0 0 456.04 147.07"><title>stagger-line128</title><g id="Layer_2" data-name="Layer 2"><g id="Layer_1-2" data-name="Layer 1"><polygon points="259.77 72.07 194.77 7.07 129.77 72.07 65.77 8.07 3.54 70.3 0 66.77 65.77 1 129.77 65 194.77 0 259.77 65 324.77 0 389.27 64.5 452.5 1.27 456.04 4.8 389.27 71.57 324.77 7.07 259.77 72.07"/><polygon points="259.77 147.07 194.77 82.07 129.77 147.07 65.77 83.07 3.54 145.3 0 141.77 65.77 76 129.77 140 194.77 75 259.77 140 324.77 75 389.27 139.5 452.5 76.27 456.04 79.8 389.27 146.57 324.77 82.07 259.77 147.07"/></g></g></svg>