<svg xmlns="http://www.w3.org/2000/svg" viewBox="0 0 57.69 57"><defs><style>.cls-1{fill:#1c1c1c;}</style></defs><title>rc</title><g id="Layer_2" data-name="Layer 2"><g id="Layer_1-2" data-name="Layer 1"><path class="cls-1" d="M18.36,8.39h4.82a19.7,19.7,0,0,1,2.87-5.7,13.55,13.55,0,0,1,1.74-2H19.1a36.84,36.84,0,0,0-7.6.68A16.32,16.32,0,0,0,5.83,3.7,10.17,10.17,0,0,0,2.12,8.28,18.84,18.84,0,0,0,.91,15.43a20.74,20.74,0,0,0,1.55,8.69,9.92,9.92,0,0,0,5.2,5L0,56.26H11.55l6.35-25h3.92V24.35H19c-2.69,0-4.63-.63-5.78-2s-1.71-3.31-1.71-6.11.51-4.75,1.48-6S15.79,8.39,18.36,8.39Z"/><path class="cls-1" d="M46.66,20.87V14.34c0-.25,0-.65,0-1.21a6.49,6.49,0,0,0-.12-1.19l-.23-1a2.68,2.68,0,0,0-.37-1c-.14-.2-.33-.45-.55-.74a2,2,0,0,0-.79-.62,8.08,8.08,0,0,0-1.07-.33,5.84,5.84,0,0,0-1.36-.15,5.07,5.07,0,0,0-2.23.45,3.89,3.89,0,0,0-1.42,1.12,4.85,4.85,0,0,0-.77,1.83,14.08,14.08,0,0,0-.34,2.14c0,.66-.07,1.49-.07,2.5V41a13.23,13.23,0,0,0,1,6,3.92,3.92,0,0,0,3.8,1.91A5.92,5.92,0,0,0,44,48.59a2.76,2.76,0,0,0,1.29-.89,6.58,6.58,0,0,0,.77-1.21,5.22,5.22,0,0,0,.4-1.65c.08-.72.13-1.32.15-1.81s0-1.18,0-2.05V35.55h11v4.69A27.22,27.22,0,0,1,56.94,47a15.46,15.46,0,0,1-2.47,5.23,10.68,10.68,0,0,1-4.82,3.55A20.79,20.79,0,0,1,42.11,57a20.51,20.51,0,0,1-7.78-1.32,11.6,11.6,0,0,1-5.06-3.87A16.68,16.68,0,0,1,26.62,46a32.74,32.74,0,0,1-.8-7.65V18.73a33.91,33.91,0,0,1,.8-7.84,17.8,17.8,0,0,1,.8-2.5,15.38,15.38,0,0,1,1.85-3.33,11.2,11.2,0,0,1,5.05-3.79L35.05,1a22.14,22.14,0,0,1,7.06-1,21.62,21.62,0,0,1,7.42,1.12,10.91,10.91,0,0,1,4.83,3.3,13.65,13.65,0,0,1,2.54,5,24.62,24.62,0,0,1,.79,6.62v4.82Z"/></g></g></svg>